<?xml version="1.0" encoding="UTF-8" standalone="no"?>
<svg
   xmlns:dc="http://purl.org/dc/elements/1.1/"
   xmlns:cc="http://creativecommons.org/ns#"
   xmlns:rdf="http://www.w3.org/1999/02/22-rdf-syntax-ns#"
   xmlns:svg="http://www.w3.org/2000/svg"
   xmlns="http://www.w3.org/2000/svg"
   xmlns:sodipodi="http://sodipodi.sourceforge.net/DTD/sodipodi-0.dtd"
   xmlns:inkscape="http://www.inkscape.org/namespaces/inkscape"
   width="30.48mm"
   height="128.5mm"
   viewBox="0 0 30.48 128.5"
   version="1.1"
   id="svg1113"
   inkscape:version="1.0.2 (e86c8708, 2021-01-15)"
   sodipodi:docname="Divider.svg">
  <defs
     id="defs1107" />
  <sodipodi:namedview
     id="base"
     pagecolor="#ffffff"
     bordercolor="#666666"
     borderopacity="1.0"
     inkscape:pageopacity="0.0"
     inkscape:pageshadow="2"
     inkscape:zoom="0.98994949"
     inkscape:cx="249.52578"
     inkscape:cy="269.98607"
     inkscape:document-units="mm"
     inkscape:current-layer="layer2"
     showgrid="false"
     inkscape:snap-page="true"
     inkscape:snap-bbox="true"
     inkscape:window-width="1680"
     inkscape:window-height="1005"
     inkscape:window-x="1854"
     inkscape:window-y="102"
     inkscape:window-maximized="0"
     inkscape:document-rotation="0" />
  <metadata
     id="metadata1110">
    <rdf:RDF>
      <cc:Work
         rdf:about="">
        <dc:format>image/svg+xml</dc:format>
        <dc:type
           rdf:resource="http://purl.org/dc/dcmitype/StillImage" />
        <dc:title />
      </cc:Work>
    </rdf:RDF>
  </metadata>
  <g
     inkscape:label="Layer 1"
     inkscape:groupmode="layer"
     id="layer1"
     transform="translate(0,-168.5)"
     style="display:inline"
     sodipodi:insensitive="true">
    <rect
       style="display:inline;fill:#f0f0f0;fill-opacity:1;fill-rule:evenodd;stroke:none;stroke-width:0.264583px;stroke-linecap:butt;stroke-linejoin:miter;stroke-opacity:1"
       id="rect3432"
       width="30.48"
       height="128.5"
       x="4.7683716e-07"
       y="168.50002" />
    <g
       id="text5024"
       style="font-style:normal;font-variant:normal;font-weight:500;font-stretch:normal;font-size:10.2246px;line-height:125%;font-family:'CMU Serif';-inkscape-font-specification:'CMU Serif Medium';letter-spacing:0px;word-spacing:0px;display:inline;fill:#000000;fill-opacity:1;stroke:none;stroke-width:0.637626;stroke-linecap:butt;stroke-linejoin:miter;stroke-miterlimit:4;stroke-dasharray:none;stroke-opacity:1"
       transform="matrix(0.25877227,0,0,0.25877227,55.894828,202.7422)" />
    <g
       transform="matrix(0.25877227,0,0,0.25877227,104.78502,202.66839)"
       style="font-style:normal;font-weight:normal;font-size:40.89829999999999899px;line-height:125%;font-family:sans-serif;letter-spacing:0px;word-spacing:0px;display:inline;fill:#1f6ea3;fill-opacity:1;stroke:none;stroke-width:1px;stroke-linecap:butt;stroke-linejoin:miter;stroke-opacity:1"
       id="text4234" />
    <rect
       style="display:inline;fill:#aaccff;fill-opacity:1;stroke:none;stroke-width:0.20941"
       id="rect5679"
       width="30.480011"
       height="1.4399717"
       x="-1.1205673e-05"
       y="168.5" />
    <path
       style="display:inline;fill:none;fill-rule:evenodd;stroke:#000000;stroke-width:0.251876px;stroke-linecap:butt;stroke-linejoin:miter;stroke-opacity:1"
       d="m 11.881816,196.45833 v 24.40462 h 5.909463 v 0 0"
       id="path4232"
       inkscape:connector-curvature="0"
       sodipodi:nodetypes="ccccc" />
    <path
       inkscape:connector-curvature="0"
       id="path4234"
       d="m 11.881816,220.84809 v 14.60088 h 5.909463 v 0 0"
       style="display:inline;fill:none;fill-rule:evenodd;stroke:#000000;stroke-width:0.251876px;stroke-linecap:butt;stroke-linejoin:miter;stroke-opacity:1" />
    <path
       style="display:inline;fill:none;fill-rule:evenodd;stroke:#000000;stroke-width:0.251876px;stroke-linecap:butt;stroke-linejoin:miter;stroke-opacity:1"
       d="m 11.881816,235.43412 v 14.60087 h 5.909463 v 0 0"
       id="path4236"
       inkscape:connector-curvature="0" />
    <path
       inkscape:connector-curvature="0"
       id="path4238"
       d="m 11.881816,250.02014 v 14.60088 h 5.909463 v 0 0"
       style="display:inline;fill:none;fill-rule:evenodd;stroke:#000000;stroke-width:0.251876px;stroke-linecap:butt;stroke-linejoin:miter;stroke-opacity:1" />
    <path
       style="display:inline;fill:none;fill-rule:evenodd;stroke:#000000;stroke-width:0.251876px;stroke-linecap:butt;stroke-linejoin:miter;stroke-opacity:1"
       d="m 11.881816,264.60616 v 14.60089 h 5.909463 v 0 0"
       id="path4240"
       inkscape:connector-curvature="0" />
    <rect
       style="display:inline;opacity:1;fill:#f0f0f0;fill-opacity:1;stroke:none;stroke-width:0.365;stroke-linecap:round;stroke-linejoin:miter;stroke-miterlimit:4;stroke-dasharray:none;stroke-dashoffset:0;stroke-opacity:1"
       id="rect856"
       width="4.2600594"
       height="4.5106506"
       x="9.7704058"
       y="211.04768" />
    <g
       transform="matrix(0.25877227,0,0,0.25877227,104.78502,202.66839)"
       aria-label="2"
       style="font-style:normal;font-weight:normal;font-size:15.03100000000000058px;line-height:1.25;font-family:sans-serif;letter-spacing:0px;word-spacing:0px;display:inline;fill:#000000;fill-opacity:1;stroke:none;stroke-width:0.827417"
       id="text854">
      <path
         inkscape:connector-curvature="0"
         d="m -360.45395,45.26993 h 5.17424 v 1.24769 h -6.9577 v -1.24769 q 0.84402,-0.873384 2.29721,-2.341255 1.46054,-1.47521 1.83484,-1.900893 0.71192,-0.799989 0.99082,-1.350441 0.28623,-0.557791 0.28623,-1.093564 0,-0.873383 -0.61651,-1.423835 -0.60916,-0.550451 -1.59264,-0.550451 -0.69723,0 -1.47521,0.242198 -0.77063,0.242199 -1.65135,0.733936 v -1.497228 q 0.8954,-0.359629 1.67337,-0.543113 0.77797,-0.183484 1.42384,-0.183484 1.70273,0 2.71556,0.851366 1.01283,0.851365 1.01283,2.2752 0,0.67522 -0.25688,1.284387 -0.24954,0.601827 -0.91742,1.423835 -0.18348,0.212841 -1.16696,1.233011 -0.98347,1.012831 -2.77427,2.840331 z"
         style="stroke-width:0.827417"
         id="path1040" />
    </g>
    <path
       inkscape:connector-curvature="0"
       style="display:inline;opacity:1;fill:#f0f0f0;fill-opacity:1;stroke:none;stroke-width:0.365;stroke-linecap:round;stroke-linejoin:miter;stroke-miterlimit:4;stroke-dasharray:none;stroke-dashoffset:0;stroke-opacity:1"
       d="m 9.7704067,225.63369 h 4.2600603 v 4.51065 H 9.7704067 Z"
       id="rect869" />
    <g
       transform="matrix(0.25877227,0,0,0.25877227,104.78502,202.66839)"
       aria-label="4"
       style="font-style:normal;font-weight:normal;font-size:15.03100000000000058px;line-height:1.25;font-family:sans-serif;letter-spacing:0px;word-spacing:0px;display:inline;fill:#000000;fill-opacity:1;stroke:none;stroke-width:0.827417"
       id="text873">
      <path
         inkscape:connector-curvature="0"
         d="m -357.65766,93.217942 -3.74307,5.849466 h 3.74307 z m -0.38898,-1.291726 h 1.86419 v 7.141192 h 1.56329 v 1.233012 h -1.56329 v 2.58345 h -1.47521 v -2.58345 h -4.94672 v -1.431174 z"
         style="stroke-width:0.827417"
         id="path1043" />
    </g>
    <rect
       style="display:inline;opacity:1;fill:#f0f0f0;fill-opacity:1;stroke:none;stroke-width:0.365;stroke-linecap:round;stroke-linejoin:miter;stroke-miterlimit:4;stroke-dasharray:none;stroke-dashoffset:0;stroke-opacity:1"
       id="rect875"
       width="4.2600594"
       height="4.5106506"
       x="9.7704058"
       y="240.21971" />
    <g
       transform="matrix(0.25877227,0,0,0.25877227,104.78502,202.66839)"
       aria-label="8"
       style="font-style:normal;font-weight:normal;font-size:15.03100000000000058px;line-height:1.25;font-family:sans-serif;letter-spacing:0px;word-spacing:0px;display:inline;fill:#000000;fill-opacity:1;stroke:none;stroke-width:0.827417"
       id="text879">
      <path
         inkscape:connector-curvature="0"
         d="m -358.5604,154.04649 q -1.05686,0 -1.66603,0.56513 -0.60183,0.56513 -0.60183,1.55594 0,0.99082 0.60183,1.55595 0.60917,0.56513 1.66603,0.56513 1.05687,0 1.66604,-0.56513 0.60916,-0.57247 0.60916,-1.55595 0,-0.99081 -0.60916,-1.55594 -0.60183,-0.56513 -1.66604,-0.56513 z m -1.48255,-0.63119 q -0.95411,-0.23486 -1.48989,-0.88806 -0.52843,-0.6532 -0.52843,-1.59264 0,-1.31374 0.9321,-2.07704 0.93944,-0.76329 2.56877,-0.76329 1.63668,0 2.56878,0.76329 0.93209,0.7633 0.93209,2.07704 0,0.93944 -0.53577,1.59264 -0.52843,0.6532 -1.47521,0.88806 1.07155,0.24954 1.66603,0.97614 0.60183,0.72659 0.60183,1.77612 0,1.59264 -0.97613,2.44401 -0.9688,0.85136 -2.78162,0.85136 -1.81282,0 -2.78895,-0.85136 -0.9688,-0.85137 -0.9688,-2.44401 0,-1.04953 0.60183,-1.77612 0.60183,-0.7266 1.67337,-0.97614 z m -0.54311,-2.34125 q 0,0.85137 0.52843,1.32842 0.53578,0.47706 1.49723,0.47706 0.95412,0 1.48989,-0.47706 0.54311,-0.47705 0.54311,-1.32842 0,-0.85137 -0.54311,-1.32842 -0.53577,-0.47706 -1.48989,-0.47706 -0.96145,0 -1.49723,0.47706 -0.52843,0.47705 -0.52843,1.32842 z"
         style="stroke-width:0.827417"
         id="path1047" />
    </g>
    <rect
       y="254.80573"
       x="9.7704058"
       height="4.5106506"
       width="4.2600594"
       id="rect881"
       style="display:inline;opacity:1;fill:#f0f0f0;fill-opacity:1;stroke:none;stroke-width:0.365;stroke-linecap:round;stroke-linejoin:miter;stroke-miterlimit:4;stroke-dasharray:none;stroke-dashoffset:0;stroke-opacity:1" />
    <g
       transform="matrix(0.25877227,0,0,0.25877227,104.78502,202.66839)"
       aria-label="16"
       style="font-style:normal;font-weight:normal;font-size:15.03100000000000058px;line-height:1.25;font-family:sans-serif;letter-spacing:0px;word-spacing:0px;display:inline;fill:#000000;fill-opacity:1;stroke:none;stroke-width:0.827417"
       id="text885">
      <path
         inkscape:connector-curvature="0"
         d="m -367.11075,214.36867 h 2.42199 v -8.35952 l -2.63483,0.52843 v -1.35044 l 2.62015,-0.52843 h 1.48255 v 9.70996 h 2.42199 v 1.24769 h -6.31185 z"
         style="stroke-width:0.827417"
         id="path1050" />
      <path
         inkscape:connector-curvature="0"
         d="m -354.44302,209.54672 q -0.99815,0 -1.5853,0.68256 -0.57981,0.68256 -0.57981,1.87153 0,1.18164 0.57981,1.87154 0.58715,0.68256 1.5853,0.68256 0.99815,0 1.57796,-0.68256 0.58715,-0.6899 0.58715,-1.87154 0,-1.18897 -0.58715,-1.87153 -0.57981,-0.68256 -1.57796,-0.68256 z m 2.94308,-4.64581 v 1.35044 q -0.55779,-0.26422 -1.13026,-0.40367 -0.56513,-0.13945 -1.12292,-0.13945 -1.46787,0 -2.24584,0.99082 -0.77064,0.99081 -0.88073,2.99445 0.43302,-0.63852 1.08623,-0.97613 0.6532,-0.34495 1.43851,-0.34495 1.65136,0 2.60547,1.00549 0.96146,0.99815 0.96146,2.7229 0,1.68805 -0.99816,2.70822 -0.99815,1.02017 -2.65684,1.02017 -1.90089,0 -2.90639,-1.45319 -1.00549,-1.46053 -1.00549,-4.22747 0,-2.59813 1.23301,-4.13939 1.23302,-1.54861 3.31005,-1.54861 0.55779,0 1.12292,0.11009 0.57247,0.11009 1.18898,0.33028 z"
         style="stroke-width:0.827417"
         id="path1052" />
    </g>
    <rect
       style="display:inline;opacity:1;fill:#f0f0f0;fill-opacity:1;stroke:none;stroke-width:0.365;stroke-linecap:round;stroke-linejoin:miter;stroke-miterlimit:4;stroke-dasharray:none;stroke-dashoffset:0;stroke-opacity:1"
       id="rect887"
       width="4.2600594"
       height="4.5106506"
       x="9.7704058"
       y="269.39175" />
    <g
       transform="matrix(0.25877227,0,0,0.25877227,104.78502,202.66839)"
       aria-label="32"
       style="font-style:normal;font-weight:normal;font-size:15.03100000000000058px;line-height:1.25;font-family:sans-serif;letter-spacing:0px;word-spacing:0px;display:inline;fill:#000000;fill-opacity:1;stroke:none;stroke-width:0.827417"
       id="text891">
      <path
         inkscape:connector-curvature="0"
         d="m -362.87594,266.07442 q 1.06421,0.22752 1.65869,0.94678 0.60183,0.71926 0.60183,1.77612 0,1.622 -1.11558,2.51006 -1.11558,0.88807 -3.1706,0.88807 -0.6899,0 -1.42384,-0.13945 -0.72659,-0.13211 -1.50457,-0.40367 v -1.43117 q 0.61651,0.35963 1.35045,0.54311 0.73393,0.18349 1.53392,0.18349 1.39448,0 2.12107,-0.55046 0.73394,-0.55045 0.73394,-1.59998 0,-0.96879 -0.68256,-1.5119 -0.67522,-0.55045 -1.88621,-0.55045 h -1.27705 v -1.21834 h 1.33576 q 1.09356,0 1.67337,-0.43302 0.57981,-0.44036 0.57981,-1.26237 0,-0.84402 -0.60182,-1.29172 -0.59449,-0.45504 -1.71007,-0.45504 -0.60917,0 -1.30641,0.1321 -0.69724,0.13211 -1.53392,0.41101 v -1.32109 q 0.84402,-0.23486 1.57796,-0.35229 0.74127,-0.11742 1.39447,-0.11742 1.68806,0 2.67153,0.77063 0.98347,0.76329 0.98347,2.0697 0,0.91008 -0.52109,1.54126 -0.5211,0.62385 -1.48255,0.86604 z"
         style="stroke-width:0.827417"
         id="path1055" />
      <path
         inkscape:connector-curvature="0"
         d="m -356.52006,270.73491 h 5.17425 v 1.24769 h -6.95771 v -1.24769 q 0.84402,-0.87338 2.29722,-2.34125 1.46053,-1.47521 1.83483,-1.90089 0.71192,-0.79999 0.99082,-1.35044 0.28623,-0.55779 0.28623,-1.09357 0,-0.87338 -0.6165,-1.42383 -0.60917,-0.55045 -1.59264,-0.55045 -0.69724,0 -1.47521,0.24219 -0.77064,0.2422 -1.65136,0.73394 v -1.49723 q 0.8954,-0.35963 1.67337,-0.54311 0.77798,-0.18348 1.42384,-0.18348 1.70273,0 2.71556,0.85136 1.01283,0.85137 1.01283,2.2752 0,0.67522 -0.25688,1.28439 -0.24953,0.60182 -0.91742,1.42383 -0.18348,0.21284 -1.16695,1.23301 -0.98348,1.01284 -2.77428,2.84033 z"
         style="stroke-width:0.827417"
         id="path1057" />
    </g>
    <g
       transform="matrix(0.25877227,0,0,0.25877227,104.78502,202.66839)"
       aria-label="IN"
       style="font-style:normal;font-weight:normal;font-size:15.03100000000000058px;line-height:1.25;font-family:sans-serif;letter-spacing:0px;word-spacing:0px;display:inline;fill:#000000;fill-opacity:1;stroke:none;stroke-width:0.827417"
       id="text897">
      <path
         inkscape:connector-curvature="0"
         d="m -366.53501,-70.008709 h 1.48255 v 10.957657 h -1.48255 z"
         style="font-style:normal;stroke-width:0.827417"
         id="path1035" />
      <path
         inkscape:connector-curvature="0"
         d="m -362.10204,-70.008709 h 1.9963 l 4.85866,9.166854 v -9.166854 h 1.43851 v 10.957657 h -1.99631 l -4.85865,-9.166855 v 9.166855 h -1.43851 z"
         style="font-style:normal;stroke-width:0.827417"
         id="path1037" />
    </g>
    <path
       style="display:inline;fill:#000000;stroke:#000000;stroke-width:0.264583px;stroke-linecap:round;stroke-linejoin:miter;stroke-opacity:1"
       d="m 11.08679,203.07291 c 0,0 0.475761,0.38132 0.79375,0.38132 0.31799,0 0.793751,-0.38132 0.793751,-0.38132 l -0.793751,2.64584 z"
       id="path967"
       inkscape:connector-curvature="0"
       sodipodi:nodetypes="csccc" />
  </g>
  <g
     inkscape:groupmode="layer"
     id="layer6"
     inkscape:label="components"
     style="display:none"
     sodipodi:insensitive="true">
    <circle
       style="display:inline;opacity:1;fill:#00ff00;fill-opacity:1;stroke:none;stroke-width:6;stroke-linecap:square;stroke-linejoin:miter;stroke-miterlimit:4;stroke-dasharray:48, 6;stroke-dashoffset:0;stroke-opacity:1"
       id="circle1"
       cx="11.811755"
       cy="24.745535"
       r="3.8789234"
       inkscape:label="MAIN_IN" />
    <circle
       r="3.8789234"
       style="display:inline;opacity:1;fill:#0000ff;fill-opacity:1;stroke:none;stroke-width:6;stroke-linecap:square;stroke-linejoin:miter;stroke-miterlimit:4;stroke-dasharray:48, 6;stroke-dashoffset:0;stroke-opacity:1"
       id="circle2"
       cx="21.26116"
       cy="52.337799"
       inkscape:label="OUTPUT2" />
    <circle
       inkscape:label="OUTPUT4"
       cy="66.95401"
       cx="21.26116"
       id="circle1855"
       style="display:inline;opacity:1;fill:#0000ff;fill-opacity:1;stroke:none;stroke-width:6;stroke-linecap:square;stroke-linejoin:miter;stroke-miterlimit:4;stroke-dasharray:48, 6;stroke-dashoffset:0;stroke-opacity:1"
       r="3.8789234" />
    <circle
       r="3.8789234"
       style="display:inline;opacity:1;fill:#0000ff;fill-opacity:1;stroke:none;stroke-width:6;stroke-linecap:square;stroke-linejoin:miter;stroke-miterlimit:4;stroke-dasharray:48, 6;stroke-dashoffset:0;stroke-opacity:1"
       id="circle1857"
       cx="21.26116"
       cy="81.510811"
       inkscape:label="OUTPUT8" />
    <circle
       inkscape:label="OUTPUT16"
       cy="96.034538"
       cx="21.26116"
       id="circle1859"
       style="display:inline;opacity:1;fill:#0000ff;fill-opacity:1;stroke:none;stroke-width:6;stroke-linecap:square;stroke-linejoin:miter;stroke-miterlimit:4;stroke-dasharray:48, 6;stroke-dashoffset:0;stroke-opacity:1"
       r="3.8789234" />
    <circle
       r="3.8789234"
       style="display:inline;opacity:1;fill:#0000ff;fill-opacity:1;stroke:none;stroke-width:6;stroke-linecap:square;stroke-linejoin:miter;stroke-miterlimit:4;stroke-dasharray:48, 6;stroke-dashoffset:0;stroke-opacity:1"
       id="circle1861"
       cx="21.26116"
       cy="110.61497"
       inkscape:label="OUTPUT32" />
    <circle
       style="display:inline;opacity:1;fill:#ff00ff;fill-opacity:1;stroke:none;stroke-width:0.365;stroke-linecap:round;stroke-linejoin:miter;stroke-miterlimit:4;stroke-dasharray:none;stroke-dashoffset:0;stroke-opacity:1"
       id="circle3"
       cx="5.7797041"
       cy="44.878044"
       r="1.0222384"
       inkscape:label="LIGHT2" />
    <circle
       inkscape:label="LIGHT4"
       r="1.0222384"
       cy="59.165546"
       cx="5.7797041"
       id="circle1869"
       style="display:inline;opacity:1;fill:#ff00ff;fill-opacity:1;stroke:none;stroke-width:0.365;stroke-linecap:round;stroke-linejoin:miter;stroke-miterlimit:4;stroke-dasharray:none;stroke-dashoffset:0;stroke-opacity:1" />
    <circle
       style="display:inline;opacity:1;fill:#ff00ff;fill-opacity:1;stroke:none;stroke-width:0.365;stroke-linecap:round;stroke-linejoin:miter;stroke-miterlimit:4;stroke-dasharray:none;stroke-dashoffset:0;stroke-opacity:1"
       id="circle1871"
       cx="5.7797041"
       cy="73.982208"
       r="1.0222384"
       inkscape:label="LIGHT8" />
    <circle
       inkscape:label="LIGHT16"
       r="1.0222384"
       cy="88.515388"
       cx="5.7324572"
       id="circle1873"
       style="display:inline;opacity:1;fill:#ff00ff;fill-opacity:1;stroke:none;stroke-width:0.365;stroke-linecap:round;stroke-linejoin:miter;stroke-miterlimit:4;stroke-dasharray:none;stroke-dashoffset:0;stroke-opacity:1" />
    <circle
       style="display:inline;opacity:1;fill:#ff00ff;fill-opacity:1;stroke:none;stroke-width:0.365;stroke-linecap:round;stroke-linejoin:miter;stroke-miterlimit:4;stroke-dasharray:none;stroke-dashoffset:0;stroke-opacity:1"
       id="circle1875"
       cx="5.7797041"
       cy="103.08635"
       r="1.0222384"
       inkscape:label="LIGHT32" />
  </g>
  <g
     inkscape:groupmode="layer"
     id="layer2"
     inkscape:label="Layer 2">
    <text
       xml:space="preserve"
       style="font-style:normal;font-variant:normal;font-weight:normal;font-stretch:normal;font-size:5.64444px;line-height:1.25;font-family:'Fira Code';-inkscape-font-specification:'Fira Code';letter-spacing:0px;stroke-width:0.264583"
       x="3.0447636"
       y="8.5579977"
       id="text130"><tspan
         sodipodi:role="line"
         id="tspan128"
         x="3.0447636"
         y="8.5579977"
         style="font-style:normal;font-variant:normal;font-weight:normal;font-stretch:normal;font-size:5.64444px;font-family:'Fira Code';-inkscape-font-specification:'Fira Code';stroke-width:0.264583">Divider</tspan></text>
  </g>
</svg>
